<svg width="427" height="396" viewBox="0 0 427 396" fill="none" xmlns="http://www.w3.org/2000/svg">
<path d="M87.8876 318.007L269.469 280.934C246.483 242.143 204.828 171.395 192.813 150.982L87.8876 318.007ZM20.3304 385.13C12.9922 385.13 6.18787 381.062 2.57058 374.517C-1.05866 367.944 -0.835568 360.207 3.1801 353.817L187.821 59.8924C188.929 58.1236 190.841 57.0679 192.925 57.0679C195.012 57.0679 196.92 58.1236 198.028 59.8924L323.812 269.839L352.946 263.887L208.868 32.7946C207.649 30.8425 207.649 28.3328 208.864 26.3887L218.779 10.6008C222.946 3.96381 230.117 -3.77979e-05 237.957 -3.77979e-05C245.798 -3.77979e-05 252.968 3.96382 257.135 10.6048L423.642 275.671C427.128 281.216 427.67 288.124 425.092 294.144C422.515 300.163 417.145 304.542 410.731 305.852L24.5612 384.696C23.1549 384.982 21.7327 385.13 20.3304 385.13Z" fill="white"/>
<path d="M136.735 395.305C134.329 395.305 132.325 393.496 132.082 391.098C131.839 388.7 133.44 386.528 135.803 386.046L346.203 343.089L346.88 343.061C348.741 343.061 350.446 344.005 351.434 345.579L368.046 372.035C371.034 376.788 371.198 382.553 368.481 387.465C365.764 392.373 360.796 395.305 355.187 395.305H136.735Z" fill="white"/>
</svg>
